# xmcd
#
# Track frame offsets:
# 150
# 17094
# 29701
# 47462
# 66669
# 81582
# 102028
# 119903
# 140045
# 161161
# 180051
# 195981
# 211515
# 228738
# 245197
# 255224
# 270227
# 280483
# 294167
# 312581
# 329929
# 338933
#
# Disc length: 4758 seconds
#
#
# Revision: 0
# Processed by: cddbd v1.5.2PL0 Copyright (c) Steve Scherf et al.
# Submitted via: FreeRIP 2.951 
#
DISCID=54129416
DTITLE=Nas - hIP hOP iS dEAD oLD to New
DYEAR=1900
DGENRE=Hip-Hop
TTITLE0=Hip Hop Is Dead(WillIAm)
TTITLE1=The N Intro
TTITLE2=Black Republicans(JayZ)
TTITLE3=Worlds Greatest
TTITLE4=NY Takeover(Jayz)
TTITLE5=Gods And Earths(Rakim)
TTITLE6=We Brave(Braveheart)
TTITLE7=Let There Be Light
TTITLE8=Heaven
TTITLE9=Polo and Guess
TTITLE10=Made You Look Remix(Jadakiss Ludacris)
TTITLE11=Kill At Will(MBoogie JFingaz)
TTITLE12=Carry On Tradition
TTITLE13=Touch It Remix(Busta JayZ)
TTITLE14=Style(MBoogie JFingaz)
TTITLE15=Gansta Tears
TTITLE16=Analyse This(JayZ)
TTITLE17=Livin To Die(StylesP Game)
TTITLE18=MC Burial 50cent Diss
TTITLE19=Poppa Was A Playa
TTITLE20=Wise Guys(Styles P)
TTITLE21=Oochie Wally
EXTD=
EXTT0=
EXTT1=
EXTT2=
EXTT3=
EXTT4=
EXTT5=
EXTT6=
EXTT7=
EXTT8=
EXTT9=
EXTT10=
EXTT11=
EXTT12=
EXTT13=
EXTT14=
EXTT15=
EXTT16=
EXTT17=
EXTT18=
EXTT19=
EXTT20=
EXTT21=
PLAYORDER=
